<svg width="118" height="118" viewBox="0 0 118 118" fill="none" xmlns="http://www.w3.org/2000/svg">
<circle cx="59" cy="59" r="57" stroke="#00D67B" stroke-width="2.14674"/>
<path fill-rule="evenodd" clip-rule="evenodd" d="M37.7908 37.7906C37.7908 34.8622 40.1647 32.4883 43.0931 32.4883H64.3024C65.0055 32.4883 65.6799 32.7676 66.1771 33.2648L79.4329 46.5206C79.9301 47.0178 80.2094 47.6921 80.2094 48.3953V80.2092C80.2094 83.1376 77.8354 85.5115 74.9071 85.5115H43.0931C40.1647 85.5115 37.7908 83.1376 37.7908 80.2092V37.7906ZM73.8089 48.3953H64.3024V38.8888L73.8089 48.3953ZM59.0001 37.7906V51.0464C59.0001 52.5106 60.187 53.6976 61.6512 53.6976H74.9071V80.2092H43.0931V37.7906L59.0001 37.7906ZM48.3954 61.6511C48.3954 60.1869 49.5824 58.9999 51.0466 58.9999H66.9536C68.4178 58.9999 69.6047 60.1869 69.6047 61.6511C69.6047 63.1153 68.4178 64.3022 66.9536 64.3022H51.0466C49.5824 64.3022 48.3954 63.1153 48.3954 61.6511ZM48.3954 72.2557C48.3954 70.7915 49.5824 69.6046 51.0466 69.6046H66.9536C68.4178 69.6046 69.6047 70.7915 69.6047 72.2557C69.6047 73.7199 68.4178 74.9069 66.9536 74.9069H51.0466C49.5824 74.9069 48.3954 73.7199 48.3954 72.2557Z" fill="#00D67B"/>
</svg>
