<svg width="118" height="118" viewBox="0 0 118 118" fill="none" xmlns="http://www.w3.org/2000/svg">
<ellipse cx="59" cy="58.9998" rx="57" ry="57" stroke="#00D67B" stroke-width="2.14674"/>
<mask id="path-2-outside-1_201_141" maskUnits="userSpaceOnUse" x="24" y="24" width="69" height="69" fill="black">
<rect fill="white" x="24" y="24" width="69" height="69"/>
<path fill-rule="evenodd" clip-rule="evenodd" d="M43.5052 25.3091L43.1839 25.6304V28.9745V32.3186H42.0118C40.71 32.3186 40.2721 32.4551 40.0565 32.9282C39.8521 33.3768 39.873 33.5437 40.1825 33.9372L40.4538 34.2822H60.253C81.8956 34.2822 80.952 34.2492 81.7016 35.0317C82.508 35.8736 82.456 34.2701 82.456 58.3036C82.456 82.1857 82.5034 80.6516 81.7379 81.5614C81.5568 81.7765 81.4088 82.1143 81.4088 82.3123C81.4088 82.7866 81.9021 83.2415 82.4165 83.2415C82.9019 83.2415 83.5508 82.5831 84.0349 81.5995C84.3461 80.9671 84.3552 80.8596 84.3946 77.3834L84.4351 73.8161H87.9023H91.3696L91.6909 73.4948C92.1005 73.0853 92.1005 72.5834 91.6909 72.1739L91.3696 71.8525H87.8946H84.4196V69.2344V66.6162H87.9446H91.4696L91.7409 66.2713C92.0791 65.8414 92.0862 65.4276 91.7622 65.0272L91.512 64.7181L87.9659 64.6793L84.4196 64.6406V62.0939V59.5473H87.6728C89.6361 59.5473 91.0845 59.492 91.3258 59.4078C91.5716 59.3222 91.7871 59.1204 91.8849 58.8842C92.1064 58.3495 91.8591 57.778 91.3258 57.5922C91.0845 57.508 89.6361 57.4527 87.6728 57.4527H84.4196V54.9061V52.3594L87.9659 52.3207L91.512 52.2819L91.7622 51.9728C92.0862 51.5724 92.0791 51.1586 91.7409 50.7287L91.4696 50.3838H87.9446H84.4196V47.7656V45.1475H87.8946H91.3696L91.6909 44.8261C92.1005 44.4166 92.1005 43.9147 91.6909 43.5052L91.3696 43.1839H87.902H84.4344L84.3942 39.4203C84.3565 35.876 84.3375 35.6207 84.0689 35.0392C83.6433 34.1181 82.714 33.1985 81.7667 32.761L80.9506 32.3841L77.3834 32.3404L73.8161 32.2967V28.9635V25.6304L73.4948 25.3091C73.0853 24.8995 72.5834 24.8995 72.1739 25.3091L71.8525 25.6304V28.9745V32.3186H69.2344H66.6162V28.9245V25.5304L66.2713 25.2591C65.8414 24.9209 65.4276 24.9138 65.0272 25.2378C64.7186 25.4874 64.7181 25.4933 64.6792 28.9032L64.6402 32.3186H62.0938H59.5473V29.1963C59.5473 27.3256 59.4914 25.9138 59.4078 25.6742C59.1115 24.824 57.8885 24.824 57.5922 25.6742C57.5086 25.9138 57.4527 27.3256 57.4527 29.1963V32.3186H54.9062H52.3598L52.3208 28.9032C52.2819 25.4933 52.2814 25.4874 51.9728 25.2378C51.5724 24.9138 51.1586 24.9209 50.7287 25.2591L50.3838 25.5304V28.9245V32.3186H47.7656H45.1475V28.9745V25.6304L44.8261 25.3091C44.4166 24.8995 43.9147 24.8995 43.5052 25.3091ZM36.1613 32.4546C34.8461 32.715 33.511 33.7846 32.9287 35.0446C32.6631 35.6194 32.6433 35.8859 32.6058 39.4203L32.5656 43.1839H29.098H25.6304L25.3091 43.5052C24.8995 43.9147 24.8995 44.4166 25.3091 44.8261L25.6304 45.1475H29.1054H32.5804V47.7656V50.3838H29.0554H25.5304L25.2591 50.7287C24.9209 51.1586 24.9138 51.5724 25.2378 51.9728L25.488 52.2819L29.0341 52.3207L32.5804 52.3594V54.9061V57.4527H29.3272C27.3639 57.4527 25.9155 57.508 25.6742 57.5922C24.824 57.8885 24.824 59.1115 25.6742 59.4078C25.9155 59.492 27.3639 59.5473 29.3272 59.5473H32.5804V62.0939V64.6406L29.0341 64.6793L25.488 64.7181L25.2378 65.0272C24.9138 65.4276 24.9209 65.8414 25.2591 66.2713L25.5304 66.6162H29.0554H32.5804V69.2344V71.8525H29.1054H25.6304L25.3091 72.1739C24.8995 72.5834 24.8995 73.0853 25.3091 73.4948L25.6304 73.8161H29.1054H32.5804V75.6915C32.5804 77.4825 32.594 77.5796 32.8833 77.8515C33.2853 78.229 33.8231 78.2142 34.2226 77.8147L34.544 77.4935L34.5469 56.9023C34.5496 37.2082 34.5602 36.2882 34.7901 35.7822C35.1291 35.0357 35.7142 34.5919 36.6042 34.4057C37.9795 34.1183 38.4402 33.0404 37.4145 32.5101C37.0087 32.3002 36.9539 32.2977 36.1613 32.4546ZM44.3612 41.865C43.7786 42.0443 43.259 42.3661 42.8305 42.8127C41.9544 43.7261 42.0054 42.7629 42.0086 58.3322C42.0118 74.2254 41.9313 72.9866 43.0247 73.9724C44.0565 74.9027 43.3752 74.8634 58.5 74.8634C73.6248 74.8634 72.9435 74.9027 73.9753 73.9724C75.0687 72.9866 74.9882 74.2254 74.9914 58.3322C74.9946 42.7629 75.0456 43.7263 74.1695 42.8123C73.9392 42.5721 73.5151 42.2481 73.2271 42.0924L72.7034 41.8093L58.6964 41.7867C50.9925 41.7743 44.5416 41.8095 44.3612 41.865ZM65.569 48.8722V54.0369L65.1023 54.1657C64.4899 54.3348 63.4301 55.0211 63.0094 55.5212C62.6136 55.9916 62.0345 57.0976 62.0345 57.383C62.0345 57.5585 61.5753 57.5836 58.3691 57.5836H54.7037V55.031C54.7037 52.6876 54.7224 52.4781 54.9328 52.4771C55.3097 52.475 56.4606 51.7482 56.9254 51.2188C57.6076 50.4419 57.8956 49.671 57.8977 48.6165C57.8998 47.6134 57.5391 46.6224 56.8955 45.8614C56.4457 45.3298 55.4153 44.7837 54.5543 44.6203C52.728 44.2741 50.772 45.3937 50.1515 47.1407L49.9296 47.7656H46.9494H43.9693V46.1585C43.9693 44.4421 44.08 44.0756 44.6706 43.8373C44.8249 43.775 49.5902 43.7203 55.26 43.7157L65.569 43.7075V48.8722ZM72.7151 44.1403L73.0307 44.5076V55.5619V66.6162H66.2869H59.5429L59.5779 63.1145L59.6127 59.6127H60.7727H61.9328L62.2011 60.3327C62.5762 61.3394 63.7931 62.5454 64.8212 62.9296C66.3119 63.4865 68.1276 63.2159 69.3974 62.2475C70.5414 61.3749 71.3053 59.564 71.1386 58.1202C70.9505 56.4921 69.7688 54.9278 68.2522 54.2992L67.5326 54.001V48.8461V43.6913L69.966 43.7321L72.3993 43.7729L72.7151 44.1403ZM55.031 46.8512C55.8633 47.3636 56.1861 48.4488 55.7795 49.3679C55.1541 50.7816 53.3697 51.07 52.3603 49.9203C50.7951 48.1375 53.0015 45.6017 55.031 46.8512ZM50.3141 50.3755C50.7187 51.174 51.4 51.8497 52.1612 52.2074L52.7401 52.4796V55.7105C52.7401 59.8733 52.5101 59.5473 55.4465 59.5473H57.5836V66.2235V72.8998H54.311H51.0383V70.9387V68.9776L51.3983 68.8909C53.1471 68.4699 54.3495 66.9529 54.3495 65.1676C54.3495 62.5821 51.9286 60.7834 49.402 61.4919C47.5107 62.0221 46.3248 64.2793 46.8994 66.2556C47.1287 67.0446 48.0277 68.176 48.7023 68.5249L49.0812 68.7208L49.0452 70.7777L49.0092 72.8343L47.242 72.8732C45.1438 72.9194 44.6969 72.8538 44.2819 72.4389L43.9693 72.1263V60.9277V49.7292H46.9779H49.9866L50.3141 50.3755ZM67.8397 56.3072C69.1577 57.0349 69.5812 58.7582 68.7551 60.032C68.2813 60.763 67.6469 61.1526 66.8189 61.2213C65.0196 61.3704 63.7452 60.1045 63.8935 58.3154C64.0533 56.3885 66.1001 55.3468 67.8397 56.3072ZM51.8405 63.8177C53.0499 64.9765 52.1922 67.0104 50.4949 67.0084C49.5991 67.0075 48.6834 66.0918 48.6825 65.196C48.6807 63.5491 50.6588 62.6858 51.8405 63.8177ZM73.0307 70.353C73.0307 72.0479 73.0168 72.1401 72.7181 72.4389C72.5461 72.6109 72.2074 72.7871 71.9654 72.8305C71.7233 72.8739 68.8449 72.8926 65.569 72.8719L59.6127 72.8343L59.5767 70.7071L59.5407 68.5799H66.2857H73.0307V70.353ZM33.1636 80.4211C32.5996 80.9849 32.7956 81.7235 33.7972 82.81C34.4486 83.5166 35.2713 83.9545 36.3078 84.1462C36.7321 84.2246 38.4529 84.2887 40.1316 84.2887H43.1839V87.8291V91.3696L43.5052 91.6909C43.9147 92.1005 44.4166 92.1005 44.8261 91.6909L45.1475 91.3696V87.8291V84.2887H47.7656H50.3838V87.8791V91.4696L50.7287 91.7409C51.1586 92.0791 51.5724 92.0862 51.9728 91.7622L52.2819 91.512L52.3205 87.9004L52.3591 84.2887H54.9059H57.4527V87.6073C57.4527 89.6169 57.5077 91.0836 57.5922 91.3258C57.8885 92.176 59.1115 92.176 59.4078 91.3258C59.4923 91.0836 59.5473 89.6169 59.5473 87.6073V84.2887H62.0941H64.6409L64.6795 87.9004L64.7181 91.512L65.0272 91.7622C65.4276 92.0862 65.8414 92.0791 66.2713 91.7409L66.6162 91.4696V87.8791V84.2887H69.2344H71.8525V87.8291V91.3696L72.1739 91.6909C72.5834 92.1005 73.0853 92.1005 73.4948 91.6909L73.8161 91.3696V87.8368V84.304L76.431 84.2636C78.9209 84.2252 79.0595 84.2095 79.3327 83.9361C79.6843 83.584 79.7081 82.9499 79.3832 82.5909C79.1492 82.3322 78.9418 82.3293 57.7945 82.2946L36.4421 82.2597L35.8808 81.9599C35.5132 81.7636 35.1654 81.4192 34.8728 80.962C34.2573 79.9997 33.7465 79.838 33.1636 80.4211Z"/>
</mask>
<path fill-rule="evenodd" clip-rule="evenodd" d="M43.5052 25.3091L43.1839 25.6304V28.9745V32.3186H42.0118C40.71 32.3186 40.2721 32.4551 40.0565 32.9282C39.8521 33.3768 39.873 33.5437 40.1825 33.9372L40.4538 34.2822H60.253C81.8956 34.2822 80.952 34.2492 81.7016 35.0317C82.508 35.8736 82.456 34.2701 82.456 58.3036C82.456 82.1857 82.5034 80.6516 81.7379 81.5614C81.5568 81.7765 81.4088 82.1143 81.4088 82.3123C81.4088 82.7866 81.9021 83.2415 82.4165 83.2415C82.9019 83.2415 83.5508 82.5831 84.0349 81.5995C84.3461 80.9671 84.3552 80.8596 84.3946 77.3834L84.4351 73.8161H87.9023H91.3696L91.6909 73.4948C92.1005 73.0853 92.1005 72.5834 91.6909 72.1739L91.3696 71.8525H87.8946H84.4196V69.2344V66.6162H87.9446H91.4696L91.7409 66.2713C92.0791 65.8414 92.0862 65.4276 91.7622 65.0272L91.512 64.7181L87.9659 64.6793L84.4196 64.6406V62.0939V59.5473H87.6728C89.6361 59.5473 91.0845 59.492 91.3258 59.4078C91.5716 59.3222 91.7871 59.1204 91.8849 58.8842C92.1064 58.3495 91.8591 57.778 91.3258 57.5922C91.0845 57.508 89.6361 57.4527 87.6728 57.4527H84.4196V54.9061V52.3594L87.9659 52.3207L91.512 52.2819L91.7622 51.9728C92.0862 51.5724 92.0791 51.1586 91.7409 50.7287L91.4696 50.3838H87.9446H84.4196V47.7656V45.1475H87.8946H91.3696L91.6909 44.8261C92.1005 44.4166 92.1005 43.9147 91.6909 43.5052L91.3696 43.1839H87.902H84.4344L84.3942 39.4203C84.3565 35.876 84.3375 35.6207 84.0689 35.0392C83.6433 34.1181 82.714 33.1985 81.7667 32.761L80.9506 32.3841L77.3834 32.3404L73.8161 32.2967V28.9635V25.6304L73.4948 25.3091C73.0853 24.8995 72.5834 24.8995 72.1739 25.3091L71.8525 25.6304V28.9745V32.3186H69.2344H66.6162V28.9245V25.5304L66.2713 25.2591C65.8414 24.9209 65.4276 24.9138 65.0272 25.2378C64.7186 25.4874 64.7181 25.4933 64.6792 28.9032L64.6402 32.3186H62.0938H59.5473V29.1963C59.5473 27.3256 59.4914 25.9138 59.4078 25.6742C59.1115 24.824 57.8885 24.824 57.5922 25.6742C57.5086 25.9138 57.4527 27.3256 57.4527 29.1963V32.3186H54.9062H52.3598L52.3208 28.9032C52.2819 25.4933 52.2814 25.4874 51.9728 25.2378C51.5724 24.9138 51.1586 24.9209 50.7287 25.2591L50.3838 25.5304V28.9245V32.3186H47.7656H45.1475V28.9745V25.6304L44.8261 25.3091C44.4166 24.8995 43.9147 24.8995 43.5052 25.3091ZM36.1613 32.4546C34.8461 32.715 33.511 33.7846 32.9287 35.0446C32.6631 35.6194 32.6433 35.8859 32.6058 39.4203L32.5656 43.1839H29.098H25.6304L25.3091 43.5052C24.8995 43.9147 24.8995 44.4166 25.3091 44.8261L25.6304 45.1475H29.1054H32.5804V47.7656V50.3838H29.0554H25.5304L25.2591 50.7287C24.9209 51.1586 24.9138 51.5724 25.2378 51.9728L25.488 52.2819L29.0341 52.3207L32.5804 52.3594V54.9061V57.4527H29.3272C27.3639 57.4527 25.9155 57.508 25.6742 57.5922C24.824 57.8885 24.824 59.1115 25.6742 59.4078C25.9155 59.492 27.3639 59.5473 29.3272 59.5473H32.5804V62.0939V64.6406L29.0341 64.6793L25.488 64.7181L25.2378 65.0272C24.9138 65.4276 24.9209 65.8414 25.2591 66.2713L25.5304 66.6162H29.0554H32.5804V69.2344V71.8525H29.1054H25.6304L25.3091 72.1739C24.8995 72.5834 24.8995 73.0853 25.3091 73.4948L25.6304 73.8161H29.1054H32.5804V75.6915C32.5804 77.4825 32.594 77.5796 32.8833 77.8515C33.2853 78.229 33.8231 78.2142 34.2226 77.8147L34.544 77.4935L34.5469 56.9023C34.5496 37.2082 34.5602 36.2882 34.7901 35.7822C35.1291 35.0357 35.7142 34.5919 36.6042 34.4057C37.9795 34.1183 38.4402 33.0404 37.4145 32.5101C37.0087 32.3002 36.9539 32.2977 36.1613 32.4546ZM44.3612 41.865C43.7786 42.0443 43.259 42.3661 42.8305 42.8127C41.9544 43.7261 42.0054 42.7629 42.0086 58.3322C42.0118 74.2254 41.9313 72.9866 43.0247 73.9724C44.0565 74.9027 43.3752 74.8634 58.5 74.8634C73.6248 74.8634 72.9435 74.9027 73.9753 73.9724C75.0687 72.9866 74.9882 74.2254 74.9914 58.3322C74.9946 42.7629 75.0456 43.7263 74.1695 42.8123C73.9392 42.5721 73.5151 42.2481 73.2271 42.0924L72.7034 41.8093L58.6964 41.7867C50.9925 41.7743 44.5416 41.8095 44.3612 41.865ZM65.569 48.8722V54.0369L65.1023 54.1657C64.4899 54.3348 63.4301 55.0211 63.0094 55.5212C62.6136 55.9916 62.0345 57.0976 62.0345 57.383C62.0345 57.5585 61.5753 57.5836 58.3691 57.5836H54.7037V55.031C54.7037 52.6876 54.7224 52.4781 54.9328 52.4771C55.3097 52.475 56.4606 51.7482 56.9254 51.2188C57.6076 50.4419 57.8956 49.671 57.8977 48.6165C57.8998 47.6134 57.5391 46.6224 56.8955 45.8614C56.4457 45.3298 55.4153 44.7837 54.5543 44.6203C52.728 44.2741 50.772 45.3937 50.1515 47.1407L49.9296 47.7656H46.9494H43.9693V46.1585C43.9693 44.4421 44.08 44.0756 44.6706 43.8373C44.8249 43.775 49.5902 43.7203 55.26 43.7157L65.569 43.7075V48.8722ZM72.7151 44.1403L73.0307 44.5076V55.5619V66.6162H66.2869H59.5429L59.5779 63.1145L59.6127 59.6127H60.7727H61.9328L62.2011 60.3327C62.5762 61.3394 63.7931 62.5454 64.8212 62.9296C66.3119 63.4865 68.1276 63.2159 69.3974 62.2475C70.5414 61.3749 71.3053 59.564 71.1386 58.1202C70.9505 56.4921 69.7688 54.9278 68.2522 54.2992L67.5326 54.001V48.8461V43.6913L69.966 43.7321L72.3993 43.7729L72.7151 44.1403ZM55.031 46.8512C55.8633 47.3636 56.1861 48.4488 55.7795 49.3679C55.1541 50.7816 53.3697 51.07 52.3603 49.9203C50.7951 48.1375 53.0015 45.6017 55.031 46.8512ZM50.3141 50.3755C50.7187 51.174 51.4 51.8497 52.1612 52.2074L52.7401 52.4796V55.7105C52.7401 59.8733 52.5101 59.5473 55.4465 59.5473H57.5836V66.2235V72.8998H54.311H51.0383V70.9387V68.9776L51.3983 68.8909C53.1471 68.4699 54.3495 66.9529 54.3495 65.1676C54.3495 62.5821 51.9286 60.7834 49.402 61.4919C47.5107 62.0221 46.3248 64.2793 46.8994 66.2556C47.1287 67.0446 48.0277 68.176 48.7023 68.5249L49.0812 68.7208L49.0452 70.7777L49.0092 72.8343L47.242 72.8732C45.1438 72.9194 44.6969 72.8538 44.2819 72.4389L43.9693 72.1263V60.9277V49.7292H46.9779H49.9866L50.3141 50.3755ZM67.8397 56.3072C69.1577 57.0349 69.5812 58.7582 68.7551 60.032C68.2813 60.763 67.6469 61.1526 66.8189 61.2213C65.0196 61.3704 63.7452 60.1045 63.8935 58.3154C64.0533 56.3885 66.1001 55.3468 67.8397 56.3072ZM51.8405 63.8177C53.0499 64.9765 52.1922 67.0104 50.4949 67.0084C49.5991 67.0075 48.6834 66.0918 48.6825 65.196C48.6807 63.5491 50.6588 62.6858 51.8405 63.8177ZM73.0307 70.353C73.0307 72.0479 73.0168 72.1401 72.7181 72.4389C72.5461 72.6109 72.2074 72.7871 71.9654 72.8305C71.7233 72.8739 68.8449 72.8926 65.569 72.8719L59.6127 72.8343L59.5767 70.7071L59.5407 68.5799H66.2857H73.0307V70.353ZM33.1636 80.4211C32.5996 80.9849 32.7956 81.7235 33.7972 82.81C34.4486 83.5166 35.2713 83.9545 36.3078 84.1462C36.7321 84.2246 38.4529 84.2887 40.1316 84.2887H43.1839V87.8291V91.3696L43.5052 91.6909C43.9147 92.1005 44.4166 92.1005 44.8261 91.6909L45.1475 91.3696V87.8291V84.2887H47.7656H50.3838V87.8791V91.4696L50.7287 91.7409C51.1586 92.0791 51.5724 92.0862 51.9728 91.7622L52.2819 91.512L52.3205 87.9004L52.3591 84.2887H54.9059H57.4527V87.6073C57.4527 89.6169 57.5077 91.0836 57.5922 91.3258C57.8885 92.176 59.1115 92.176 59.4078 91.3258C59.4923 91.0836 59.5473 89.6169 59.5473 87.6073V84.2887H62.0941H64.6409L64.6795 87.9004L64.7181 91.512L65.0272 91.7622C65.4276 92.0862 65.8414 92.0791 66.2713 91.7409L66.6162 91.4696V87.8791V84.2887H69.2344H71.8525V87.8291V91.3696L72.1739 91.6909C72.5834 92.1005 73.0853 92.1005 73.4948 91.6909L73.8161 91.3696V87.8368V84.304L76.431 84.2636C78.9209 84.2252 79.0595 84.2095 79.3327 83.9361C79.6843 83.584 79.7081 82.9499 79.3832 82.5909C79.1492 82.3322 78.9418 82.3293 57.7945 82.2946L36.4421 82.2597L35.8808 81.9599C35.5132 81.7636 35.1654 81.4192 34.8728 80.962C34.2573 79.9997 33.7465 79.838 33.1636 80.4211Z" fill="#00D67B"/>
<path fill-rule="evenodd" clip-rule="evenodd" d="M43.5052 25.3091L43.1839 25.6304V28.9745V32.3186H42.0118C40.71 32.3186 40.2721 32.4551 40.0565 32.9282C39.8521 33.3768 39.873 33.5437 40.1825 33.9372L40.4538 34.2822H60.253C81.8956 34.2822 80.952 34.2492 81.7016 35.0317C82.508 35.8736 82.456 34.2701 82.456 58.3036C82.456 82.1857 82.5034 80.6516 81.7379 81.5614C81.5568 81.7765 81.4088 82.1143 81.4088 82.3123C81.4088 82.7866 81.9021 83.2415 82.4165 83.2415C82.9019 83.2415 83.5508 82.5831 84.0349 81.5995C84.3461 80.9671 84.3552 80.8596 84.3946 77.3834L84.4351 73.8161H87.9023H91.3696L91.6909 73.4948C92.1005 73.0853 92.1005 72.5834 91.6909 72.1739L91.3696 71.8525H87.8946H84.4196V69.2344V66.6162H87.9446H91.4696L91.7409 66.2713C92.0791 65.8414 92.0862 65.4276 91.7622 65.0272L91.512 64.7181L87.9659 64.6793L84.4196 64.6406V62.0939V59.5473H87.6728C89.6361 59.5473 91.0845 59.492 91.3258 59.4078C91.5716 59.3222 91.7871 59.1204 91.8849 58.8842C92.1064 58.3495 91.8591 57.778 91.3258 57.5922C91.0845 57.508 89.6361 57.4527 87.6728 57.4527H84.4196V54.9061V52.3594L87.9659 52.3207L91.512 52.2819L91.7622 51.9728C92.0862 51.5724 92.0791 51.1586 91.7409 50.7287L91.4696 50.3838H87.9446H84.4196V47.7656V45.1475H87.8946H91.3696L91.6909 44.8261C92.1005 44.4166 92.1005 43.9147 91.6909 43.5052L91.3696 43.1839H87.902H84.4344L84.3942 39.4203C84.3565 35.876 84.3375 35.6207 84.0689 35.0392C83.6433 34.1181 82.714 33.1985 81.7667 32.761L80.9506 32.3841L77.3834 32.3404L73.8161 32.2967V28.9635V25.6304L73.4948 25.3091C73.0853 24.8995 72.5834 24.8995 72.1739 25.3091L71.8525 25.6304V28.9745V32.3186H69.2344H66.6162V28.9245V25.5304L66.2713 25.2591C65.8414 24.9209 65.4276 24.9138 65.0272 25.2378C64.7186 25.4874 64.7181 25.4933 64.6792 28.9032L64.6402 32.3186H62.0938H59.5473V29.1963C59.5473 27.3256 59.4914 25.9138 59.4078 25.6742C59.1115 24.824 57.8885 24.824 57.5922 25.6742C57.5086 25.9138 57.4527 27.3256 57.4527 29.1963V32.3186H54.9062H52.3598L52.3208 28.9032C52.2819 25.4933 52.2814 25.4874 51.9728 25.2378C51.5724 24.9138 51.1586 24.9209 50.7287 25.2591L50.3838 25.5304V28.9245V32.3186H47.7656H45.1475V28.9745V25.6304L44.8261 25.3091C44.4166 24.8995 43.9147 24.8995 43.5052 25.3091ZM36.1613 32.4546C34.8461 32.715 33.511 33.7846 32.9287 35.0446C32.6631 35.6194 32.6433 35.8859 32.6058 39.4203L32.5656 43.1839H29.098H25.6304L25.3091 43.5052C24.8995 43.9147 24.8995 44.4166 25.3091 44.8261L25.6304 45.1475H29.1054H32.5804V47.7656V50.3838H29.0554H25.5304L25.2591 50.7287C24.9209 51.1586 24.9138 51.5724 25.2378 51.9728L25.488 52.2819L29.0341 52.3207L32.5804 52.3594V54.9061V57.4527H29.3272C27.3639 57.4527 25.9155 57.508 25.6742 57.5922C24.824 57.8885 24.824 59.1115 25.6742 59.4078C25.9155 59.492 27.3639 59.5473 29.3272 59.5473H32.5804V62.0939V64.6406L29.0341 64.6793L25.488 64.7181L25.2378 65.0272C24.9138 65.4276 24.9209 65.8414 25.2591 66.2713L25.5304 66.6162H29.0554H32.5804V69.2344V71.8525H29.1054H25.6304L25.3091 72.1739C24.8995 72.5834 24.8995 73.0853 25.3091 73.4948L25.6304 73.8161H29.1054H32.5804V75.6915C32.5804 77.4825 32.594 77.5796 32.8833 77.8515C33.2853 78.229 33.8231 78.2142 34.2226 77.8147L34.544 77.4935L34.5469 56.9023C34.5496 37.2082 34.5602 36.2882 34.7901 35.7822C35.1291 35.0357 35.7142 34.5919 36.6042 34.4057C37.9795 34.1183 38.4402 33.0404 37.4145 32.5101C37.0087 32.3002 36.9539 32.2977 36.1613 32.4546ZM44.3612 41.865C43.7786 42.0443 43.259 42.3661 42.8305 42.8127C41.9544 43.7261 42.0054 42.7629 42.0086 58.3322C42.0118 74.2254 41.9313 72.9866 43.0247 73.9724C44.0565 74.9027 43.3752 74.8634 58.5 74.8634C73.6248 74.8634 72.9435 74.9027 73.9753 73.9724C75.0687 72.9866 74.9882 74.2254 74.9914 58.3322C74.9946 42.7629 75.0456 43.7263 74.1695 42.8123C73.9392 42.5721 73.5151 42.2481 73.2271 42.0924L72.7034 41.8093L58.6964 41.7867C50.9925 41.7743 44.5416 41.8095 44.3612 41.865ZM65.569 48.8722V54.0369L65.1023 54.1657C64.4899 54.3348 63.4301 55.0211 63.0094 55.5212C62.6136 55.9916 62.0345 57.0976 62.0345 57.383C62.0345 57.5585 61.5753 57.5836 58.3691 57.5836H54.7037V55.031C54.7037 52.6876 54.7224 52.4781 54.9328 52.4771C55.3097 52.475 56.4606 51.7482 56.9254 51.2188C57.6076 50.4419 57.8956 49.671 57.8977 48.6165C57.8998 47.6134 57.5391 46.6224 56.8955 45.8614C56.4457 45.3298 55.4153 44.7837 54.5543 44.6203C52.728 44.2741 50.772 45.3937 50.1515 47.1407L49.9296 47.7656H46.9494H43.9693V46.1585C43.9693 44.4421 44.08 44.0756 44.6706 43.8373C44.8249 43.775 49.5902 43.7203 55.26 43.7157L65.569 43.7075V48.8722ZM72.7151 44.1403L73.0307 44.5076V55.5619V66.6162H66.2869H59.5429L59.5779 63.1145L59.6127 59.6127H60.7727H61.9328L62.2011 60.3327C62.5762 61.3394 63.7931 62.5454 64.8212 62.9296C66.3119 63.4865 68.1276 63.2159 69.3974 62.2475C70.5414 61.3749 71.3053 59.564 71.1386 58.1202C70.9505 56.4921 69.7688 54.9278 68.2522 54.2992L67.5326 54.001V48.8461V43.6913L69.966 43.7321L72.3993 43.7729L72.7151 44.1403ZM55.031 46.8512C55.8633 47.3636 56.1861 48.4488 55.7795 49.3679C55.1541 50.7816 53.3697 51.07 52.3603 49.9203C50.7951 48.1375 53.0015 45.6017 55.031 46.8512ZM50.3141 50.3755C50.7187 51.174 51.4 51.8497 52.1612 52.2074L52.7401 52.4796V55.7105C52.7401 59.8733 52.5101 59.5473 55.4465 59.5473H57.5836V66.2235V72.8998H54.311H51.0383V70.9387V68.9776L51.3983 68.8909C53.1471 68.4699 54.3495 66.9529 54.3495 65.1676C54.3495 62.5821 51.9286 60.7834 49.402 61.4919C47.5107 62.0221 46.3248 64.2793 46.8994 66.2556C47.1287 67.0446 48.0277 68.176 48.7023 68.5249L49.0812 68.7208L49.0452 70.7777L49.0092 72.8343L47.242 72.8732C45.1438 72.9194 44.6969 72.8538 44.2819 72.4389L43.9693 72.1263V60.9277V49.7292H46.9779H49.9866L50.3141 50.3755ZM67.8397 56.3072C69.1577 57.0349 69.5812 58.7582 68.7551 60.032C68.2813 60.763 67.6469 61.1526 66.8189 61.2213C65.0196 61.3704 63.7452 60.1045 63.8935 58.3154C64.0533 56.3885 66.1001 55.3468 67.8397 56.3072ZM51.8405 63.8177C53.0499 64.9765 52.1922 67.0104 50.4949 67.0084C49.5991 67.0075 48.6834 66.0918 48.6825 65.196C48.6807 63.5491 50.6588 62.6858 51.8405 63.8177ZM73.0307 70.353C73.0307 72.0479 73.0168 72.1401 72.7181 72.4389C72.5461 72.6109 72.2074 72.7871 71.9654 72.8305C71.7233 72.8739 68.8449 72.8926 65.569 72.8719L59.6127 72.8343L59.5767 70.7071L59.5407 68.5799H66.2857H73.0307V70.353ZM33.1636 80.4211C32.5996 80.9849 32.7956 81.7235 33.7972 82.81C34.4486 83.5166 35.2713 83.9545 36.3078 84.1462C36.7321 84.2246 38.4529 84.2887 40.1316 84.2887H43.1839V87.8291V91.3696L43.5052 91.6909C43.9147 92.1005 44.4166 92.1005 44.8261 91.6909L45.1475 91.3696V87.8291V84.2887H47.7656H50.3838V87.8791V91.4696L50.7287 91.7409C51.1586 92.0791 51.5724 92.0862 51.9728 91.7622L52.2819 91.512L52.3205 87.9004L52.3591 84.2887H54.9059H57.4527V87.6073C57.4527 89.6169 57.5077 91.0836 57.5922 91.3258C57.8885 92.176 59.1115 92.176 59.4078 91.3258C59.4923 91.0836 59.5473 89.6169 59.5473 87.6073V84.2887H62.0941H64.6409L64.6795 87.9004L64.7181 91.512L65.0272 91.7622C65.4276 92.0862 65.8414 92.0791 66.2713 91.7409L66.6162 91.4696V87.8791V84.2887H69.2344H71.8525V87.8291V91.3696L72.1739 91.6909C72.5834 92.1005 73.0853 92.1005 73.4948 91.6909L73.8161 91.3696V87.8368V84.304L76.431 84.2636C78.9209 84.2252 79.0595 84.2095 79.3327 83.9361C79.6843 83.584 79.7081 82.9499 79.3832 82.5909C79.1492 82.3322 78.9418 82.3293 57.7945 82.2946L36.4421 82.2597L35.8808 81.9599C35.5132 81.7636 35.1654 81.4192 34.8728 80.962C34.2573 79.9997 33.7465 79.838 33.1636 80.4211Z" stroke="#00D67B" stroke-width="0.4" mask="url(#path-2-outside-1_201_141)"/>
</svg>
