<svg xmlns="http://www.w3.org/2000/svg" width="36" height="36" fill="none" viewBox="0 0 36 36">
  <path fill="#14CC7F" d="M18 0c-2.354 0-4.154 1.8-4.154 4.154v8.307c0 2.354 1.8 4.154 4.154 4.154h8.308l5.538 5.539v-5.539c2.354 0 4.154-1.8 4.154-4.153V4.153C36 1.8 34.2 0 31.846 0H18zm5.799 4.154h2.378l2.338 8.307h-2.077l-.564-2.076h-2.077l-.518 2.076h-1.817l2.337-8.307zm1.124 1.384c-.138.554-.293 1.23-.433 1.645L24.102 9h1.643l-.39-1.818c-.276-.414-.432-1.09-.432-1.644zm-20.77 8.308C1.8 13.846 0 15.646 0 18v8.308c0 2.354 1.8 4.154 4.154 4.154V36l5.538-5.538H18c2.354 0 4.154-1.8 4.154-4.154V18H18c-2.63 0-4.716-1.8-5.408-4.154H4.154zm6.362 4.024c2.354 0 3.461 1.938 3.461 4.154 0 1.938-.666 3.168-1.773 3.721.554.277 1.21.424 1.902.563l-.518 1.384c-.969-.277-1.974-.709-2.944-1.125-.138-.139-.38-.13-.519-.13-1.661-.138-3.2-1.514-3.2-4.283 0-2.354 1.375-4.284 3.59-4.284zm0 1.515c-1.108 0-1.645 1.246-1.645 2.769 0 1.661.537 2.77 1.645 2.77 1.107 0 1.686-1.247 1.686-2.77s-.579-2.77-1.686-2.77z"/>
</svg>
