<svg width="118" height="118" viewBox="0 0 118 118" fill="none" xmlns="http://www.w3.org/2000/svg">
<path d="M77.3372 36.9629H39.3372C36.7175 36.9629 34.5872 39.0933 34.5872 41.7129V74.9629C34.5872 77.5825 36.7175 79.7129 39.3372 79.7129H77.3372C79.9568 79.7129 82.0872 77.5825 82.0872 74.9629V41.7129C82.0872 39.0933 79.9568 36.9629 77.3372 36.9629ZM39.3372 74.9629V46.4629H77.3372L77.3419 74.9629H39.3372Z" fill="#00D67B"/>
<path d="M51.9081 51.9087L43.104 60.7128L51.9081 69.5169L55.2664 66.1587L49.8205 60.7128L55.2664 55.2669L51.9081 51.9087ZM64.7664 51.9087L61.4081 55.2669L66.854 60.7128L61.4081 66.1587L64.7664 69.5169L73.5705 60.7128L64.7664 51.9087Z" fill="#00D67B"/>
<circle cx="59" cy="59" r="57" stroke="#00D67B" stroke-width="2.14674"/>
</svg>
