<svg width="118" height="118" viewBox="0 0 118 118" fill="none" xmlns="http://www.w3.org/2000/svg">
<circle cx="59" cy="59" r="57" stroke="#00D67B" stroke-width="2.14674"/>
<path d="M81.3626 77.8362L74.9071 71.4204V46.7381L71.8582 41.1309C71.6333 40.7034 71.2959 40.3454 70.8824 40.0957C70.4689 39.846 69.995 39.7141 69.512 39.7141C69.0289 39.7141 68.555 39.846 68.1415 40.0957C67.728 40.3454 67.3906 40.7034 67.1657 41.1309L64.3024 46.7513V60.8688L40.0575 36.7432C39.8721 36.5563 39.6352 36.4288 39.3771 36.377C39.1189 36.3252 38.8512 36.3514 38.608 36.4524C38.3649 36.5534 38.1573 36.7245 38.0117 36.9439C37.8662 37.1633 37.7893 37.4211 37.7908 37.6844V48.3951H40.6673V50.516H37.7908V58.9997H40.6673V61.1206H37.7908V69.9358H40.6673V72.0567H37.7908V78.7774C37.7908 79.129 37.9305 79.4661 38.179 79.7147C38.4276 79.9633 38.7648 80.103 39.1164 80.103H80.4215C80.6848 80.1045 80.9426 80.0276 81.162 79.882C81.3814 79.7365 81.5525 79.5289 81.6534 79.2857C81.7544 79.0426 81.7807 78.7748 81.7289 78.5167C81.6771 78.2585 81.5496 78.0216 81.3626 77.8362ZM48.3954 69.6044V57.5946L60.4185 69.6044H48.3954ZM72.2559 72.4013H66.9536V69.1802H72.2559V72.4013ZM72.2559 67.099H66.9536V47.4009L69.5252 42.4034L72.2559 47.4141V67.099Z" fill="#00D67B"/>
</svg>
