<svg xmlns="http://www.w3.org/2000/svg" width="1005" height="1008" fill="none" viewBox="0 0 1005 1008">
  <g opacity=".6">
    <g filter="url(#filter0_f_2_26)">
      <path fill="url(#paint0_linear_2_26)" d="M810.482 180.401c75.42-76.102 198.248-76.654 274.358-1.234 76.1 75.42 76.65 198.252 1.23 274.354-75.42 76.102-198.252 76.655-274.354 1.235-76.102-75.42-76.654-198.253-1.234-274.355z"/>
    </g>
    <g filter="url(#filter1_f_2_26)">
      <path fill="url(#paint1_linear_2_26)" d="M548.897 426.593c75.42-76.102 198.253-76.654 274.355-1.234 76.101 75.42 76.654 198.252 1.234 274.354-75.42 76.102-198.253 76.655-274.355 1.235-76.101-75.42-76.654-198.253-1.234-274.355z"/>
    </g>
    <g filter="url(#filter2_f_2_26)">
      <circle cx="444.478" cy="242.86" r="194" fill="url(#paint2_linear_2_26)" transform="rotate(-135.258 444.478 242.86)"/>
    </g>
  </g>
  <defs>
    <linearGradient id="paint0_linear_2_26" x1="875.828" x2="600.239" y1="245.162" y2="-27.958" gradientUnits="userSpaceOnUse">
      <stop stop-color="#14CC7F" stop-opacity=".75"/>
      <stop offset="1" stop-color="#000455"/>
    </linearGradient>
    <linearGradient id="paint1_linear_2_26" x1="676.325" x2="400.736" y1="-90.527" y2="-363.647" gradientUnits="userSpaceOnUse">
      <stop stop-color="#18D284" stop-opacity=".79"/>
      <stop offset=".516" stop-color="#0B686C"/>
      <stop offset="1" stop-color="#000455"/>
    </linearGradient>
    <linearGradient id="paint2_linear_2_26" x1="250.478" x2="638.478" y1="242.86" y2="242.86" gradientUnits="userSpaceOnUse">
      <stop stop-color="#14CC7F" stop-opacity=".71"/>
      <stop offset="1" stop-color="#000455"/>
    </linearGradient>
    <filter id="filter0_f_2_26" width="888" height="888" x="504.276" y="-127.039" color-interpolation-filters="sRGB" filterUnits="userSpaceOnUse">
      <feFlood flood-opacity="0" result="BackgroundImageFix"/>
      <feBlend in="SourceGraphic" in2="BackgroundImageFix" result="shape"/>
      <feGaussianBlur result="effect1_foregroundBlur_2_26" stdDeviation="125"/>
    </filter>
    <filter id="filter1_f_2_26" width="888" height="888" x="242.692" y="119.153" color-interpolation-filters="sRGB" filterUnits="userSpaceOnUse">
      <feFlood flood-opacity="0" result="BackgroundImageFix"/>
      <feBlend in="SourceGraphic" in2="BackgroundImageFix" result="shape"/>
      <feGaussianBlur result="effect1_foregroundBlur_2_26" stdDeviation="125"/>
    </filter>
    <filter id="filter2_f_2_26" width="888" height="888" x=".478" y="-201.14" color-interpolation-filters="sRGB" filterUnits="userSpaceOnUse">
      <feFlood flood-opacity="0" result="BackgroundImageFix"/>
      <feBlend in="SourceGraphic" in2="BackgroundImageFix" result="shape"/>
      <feGaussianBlur result="effect1_foregroundBlur_2_26" stdDeviation="125"/>
    </filter>
  </defs>
</svg>
