<svg width="118" height="118" viewBox="0 0 118 118" fill="none" xmlns="http://www.w3.org/2000/svg">
<circle cx="59" cy="59" r="57" stroke="#00D67B" stroke-width="2.14674"/>
<path fill-rule="evenodd" clip-rule="evenodd" d="M34.6003 40.7471C34.6003 37.8188 36.9743 35.4448 39.9027 35.4448H77.0189C79.9473 35.4448 82.3213 37.8188 82.3213 40.7471V77.8634C82.3213 80.7918 79.9473 83.1658 77.0189 83.1658H39.9027C36.9743 83.1658 34.6003 80.7918 34.6003 77.8634V40.7471ZM77.0189 40.7471H39.9027V77.8634H77.0189V40.7471ZM58.4608 46.0495C59.925 46.0495 61.112 47.2364 61.112 48.7006V69.9099C61.112 71.3741 59.925 72.5611 58.4608 72.5611C56.9966 72.5611 55.8096 71.3741 55.8096 69.9099V48.7006C55.8096 47.2364 56.9966 46.0495 58.4608 46.0495ZM69.0655 51.3518C70.5297 51.3518 71.7166 52.5388 71.7166 54.003V69.9099C71.7166 71.3741 70.5297 72.5611 69.0655 72.5611C67.6013 72.5611 66.4143 71.3741 66.4143 69.9099V54.003C66.4143 52.5388 67.6013 51.3518 69.0655 51.3518ZM47.8562 56.6541C49.3204 56.6541 50.5073 57.8411 50.5073 59.3053V69.9099C50.5073 71.3741 49.3204 72.5611 47.8562 72.5611C46.392 72.5611 45.205 71.3741 45.205 69.9099V59.3053C45.205 57.8411 46.392 56.6541 47.8562 56.6541Z" fill="#00D67B"/>
</svg>
