<svg width="117" height="118" viewBox="0 0 117 118" fill="none" xmlns="http://www.w3.org/2000/svg">
<ellipse cx="58.5464" cy="59" rx="57" ry="57" stroke="#00D67B" stroke-width="2.14674"/>
<path fill-rule="evenodd" clip-rule="evenodd" d="M48.7184 38.5675C49.2156 38.0703 49.8899 37.791 50.5931 37.791H66.5C67.2032 37.791 67.8775 38.0703 68.3747 38.5675L72.9005 43.0933H79.7558C82.6842 43.0933 85.0582 45.4673 85.0582 48.3957V74.9073C85.0582 77.8357 82.6842 80.2096 79.7558 80.2096H37.3372C34.4088 80.2096 32.0349 77.8357 32.0349 74.9073V48.3957C32.0349 45.4673 34.4088 43.0933 37.3372 43.0933H44.1926L48.7184 38.5675ZM51.6912 43.0933L47.1654 47.6192C46.6682 48.1163 45.9939 48.3957 45.2907 48.3957L37.3372 48.3957V74.9073H79.7558V48.3957H71.8024C71.0992 48.3957 70.4249 48.1163 69.9277 47.6192L65.4019 43.0933H51.6912ZM58.5465 55.0236C55.6181 55.0236 53.2442 57.3975 53.2442 60.3259C53.2442 63.2543 55.6181 65.6282 58.5465 65.6282C61.4749 65.6282 63.8489 63.2543 63.8489 60.3259C63.8489 57.3975 61.4749 55.0236 58.5465 55.0236ZM47.9419 60.3259C47.9419 54.4691 52.6898 49.7212 58.5465 49.7212C64.4033 49.7212 69.1512 54.4691 69.1512 60.3259C69.1512 66.1827 64.4033 70.9305 58.5465 70.9305C52.6898 70.9305 47.9419 66.1827 47.9419 60.3259Z" fill="#00D67B"/>
</svg>
