<svg xmlns="http://www.w3.org/2000/svg" width="36" height="36" fill="none" viewBox="0 0 36 36">
  <path fill="#7C7C7C" d="M15.75 25.875h9v2.25h-9v-2.25zM11.25 25.875h2.25v2.25h-2.25v-2.25zM15.75 20.25h9v2.25h-9v-2.25zM11.25 20.25h2.25v2.25h-2.25v-2.25zM15.75 14.625h9v2.25h-9v-2.25zM11.25 14.625h2.25v2.25h-2.25v-2.25z"/>
  <path fill="#7C7C7C" d="M28.125 5.625H24.75V4.5a2.25 2.25 0 00-2.25-2.25h-9a2.25 2.25 0 00-2.25 2.25v1.125H7.875a2.25 2.25 0 00-2.25 2.25V31.5a2.25 2.25 0 002.25 2.25h20.25a2.25 2.25 0 002.25-2.25V7.875a2.25 2.25 0 00-2.25-2.25zM13.5 4.5h9V9h-9V4.5zm14.625 27H7.875V7.875h3.375v3.375h13.5V7.875h3.375V31.5z"/>
</svg>
